<svg width="196" height="67" viewBox="0 0 196 67" fill="none" xmlns="http://www.w3.org/2000/svg">
<path d="M195.148 67.0047V1.14917H1.14844V49.4786L18.6683 67.0047H195.148Z" fill="#034DA1" fill-opacity="0.44"/>
<path d="M1.14844 15.3758V1.14917H15.3751" stroke="white" stroke-width="2.29828"/>
<path d="M33.0524 27.5413C32.4231 28.032 31.7884 28.3946 31.1484 28.6293C30.5191 28.864 29.8044 28.9813 29.0044 28.9813C27.9591 28.9813 26.9831 28.8106 26.0764 28.4693C25.1698 28.1173 24.3804 27.6213 23.7084 26.9813C23.0364 26.3413 22.5084 25.5733 22.1244 24.6773C21.7404 23.7706 21.5484 22.7626 21.5484 21.6533C21.5484 20.5013 21.7298 19.4506 22.0924 18.5013C22.4658 17.552 22.9884 16.736 23.6604 16.0533C24.3431 15.36 25.1644 14.8266 26.1244 14.4533C27.0951 14.0693 28.1778 13.8773 29.3724 13.8773C30.4391 13.8773 31.3778 14.0426 32.1884 14.3733C33.0098 14.704 33.7191 15.1413 34.3164 15.6853C34.9138 16.2293 35.4098 16.8533 35.8044 17.5573C36.2098 18.2613 36.5298 18.992 36.7644 19.7493C37.0098 20.5066 37.1804 21.2586 37.2764 22.0053C37.3831 22.752 37.4364 23.44 37.4364 24.0693C37.4364 25.3066 37.3084 26.5173 37.0524 27.7013C36.8071 28.8746 36.4391 29.984 35.9484 31.0293C35.4684 32.0746 34.8764 33.04 34.1724 33.9253C33.4684 34.8 32.6631 35.5626 31.7564 36.2133C30.8604 36.864 29.8684 37.3813 28.7804 37.7653C27.6924 38.1493 26.5191 38.368 25.2604 38.4213L24.7644 35.7493C26.0444 35.6853 27.2444 35.3813 28.3644 34.8373C29.4951 34.2933 30.4871 33.5733 31.3404 32.6773C32.2044 31.7706 32.8978 30.72 33.4204 29.5253C33.9538 28.32 34.2578 27.0346 34.3324 25.6693L33.0524 27.5413ZM34.1404 22.9013C34.1084 22.1013 33.9911 21.328 33.7884 20.5813C33.5964 19.824 33.3084 19.152 32.9244 18.5653C32.5404 17.968 32.0658 17.4933 31.5004 17.1413C30.9351 16.7786 30.2684 16.5973 29.5004 16.5973C28.7751 16.5973 28.1244 16.7146 27.5484 16.9493C26.9724 17.184 26.4818 17.5093 26.0764 17.9253C25.6711 18.3413 25.3564 18.8426 25.1324 19.4293C24.9191 20.016 24.8124 20.6613 24.8124 21.3653C24.8124 22.0586 24.8978 22.704 25.0684 23.3013C25.2498 23.8986 25.5164 24.416 25.8684 24.8533C26.2311 25.2906 26.6844 25.6373 27.2284 25.8933C27.7831 26.1386 28.4284 26.2613 29.1644 26.2613C29.7298 26.2613 30.2684 26.1706 30.7804 25.9893C31.3031 25.808 31.7778 25.568 32.2044 25.2693C32.6418 24.96 33.0258 24.6026 33.3564 24.1973C33.6871 23.792 33.9484 23.36 34.1404 22.9013ZM47.2569 22.4373C47.3316 22.3946 47.4596 22.3253 47.6409 22.2293C47.8329 22.1333 48.0676 22.0373 48.3449 21.9413C48.6223 21.8453 48.9369 21.7653 49.2889 21.7013C49.6516 21.6266 50.0516 21.5893 50.4889 21.5893C51.5983 21.5893 52.5849 21.7653 53.4489 22.1173C54.3236 22.4586 55.0596 22.9333 55.6569 23.5413C56.2649 24.1386 56.7236 24.8426 57.0329 25.6533C57.3529 26.464 57.5129 27.328 57.5129 28.2453C57.5129 29.3226 57.3209 30.32 56.9369 31.2373C56.5529 32.144 56.0249 32.9653 55.3529 33.7013C54.6916 34.4266 53.9129 35.0666 53.0169 35.6213C52.1316 36.176 51.1823 36.6453 50.1689 37.0293C49.1663 37.4026 48.1316 37.6853 47.0649 37.8773C45.9983 38.0586 44.9529 38.1493 43.9289 38.1493V35.5893C44.7289 35.568 45.5396 35.472 46.3609 35.3013C47.1823 35.1306 47.9716 34.896 48.7289 34.5973C49.4969 34.2986 50.2116 33.9413 50.8729 33.5253C51.5449 33.1093 52.1263 32.6453 52.6169 32.1333C53.1183 31.6213 53.5129 31.0666 53.8009 30.4693C54.0889 29.872 54.2329 29.2426 54.2329 28.5813C54.2329 28.0373 54.1423 27.5093 53.9609 26.9973C53.7903 26.4853 53.5289 26.032 53.1769 25.6373C52.8356 25.232 52.4036 24.9066 51.8809 24.6613C51.3583 24.416 50.7503 24.2933 50.0569 24.2933C49.5129 24.2933 49.0223 24.3306 48.5849 24.4053C48.1476 24.4693 47.7583 24.5546 47.4169 24.6613C47.0756 24.768 46.7769 24.8853 46.5209 25.0133C46.2756 25.1306 46.0729 25.2426 45.9129 25.3493H43.9289V14.1493H55.9769V16.7093H47.2569V22.4373ZM67.0934 38.1493H64.4374L75.2534 14.1493H77.9094L67.0934 38.1493ZM66.5174 25.3493C65.7708 25.3493 65.1308 25.2053 64.5974 24.9173C64.0748 24.6186 63.6481 24.2133 63.3174 23.7013C62.9868 23.1786 62.7468 22.5653 62.5974 21.8613C62.4481 21.1466 62.3734 20.3786 62.3734 19.5573C62.3734 18.7466 62.4428 17.9946 62.5814 17.3013C62.7201 16.5973 62.9494 15.9946 63.2694 15.4933C63.6001 14.992 64.0268 14.5973 64.5494 14.3093C65.0828 14.0213 65.7388 13.8773 66.5174 13.8773C67.2641 13.8773 67.8988 14.0213 68.4214 14.3093C68.9441 14.5973 69.3708 14.992 69.7014 15.4933C70.0321 15.9946 70.2721 16.5973 70.4214 17.3013C70.5708 17.9946 70.6454 18.7466 70.6454 19.5573C70.6454 20.3786 70.5708 21.1466 70.4214 21.8613C70.2828 22.5653 70.0534 23.1786 69.7334 23.7013C69.4134 24.2133 68.9868 24.6186 68.4534 24.9173C67.9308 25.2053 67.2854 25.3493 66.5174 25.3493ZM68.2614 18.7893C68.2614 18.416 68.2454 18.0586 68.2134 17.7173C68.1814 17.376 68.1068 17.0773 67.9894 16.8213C67.8721 16.5653 67.6961 16.3626 67.4614 16.2133C67.2268 16.0533 66.9068 15.9733 66.5014 15.9733C66.1068 15.9733 65.7974 16.0426 65.5734 16.1813C65.3494 16.32 65.1788 16.5066 65.0614 16.7413C64.9548 16.976 64.8854 17.2533 64.8534 17.5733C64.8214 17.8826 64.8054 18.2133 64.8054 18.5653V20.1813C64.8054 20.5653 64.8214 20.9333 64.8534 21.2853C64.8854 21.6266 64.9601 21.9306 65.0774 22.1973C65.1948 22.4533 65.3708 22.6613 65.6054 22.8213C65.8508 22.9706 66.1761 23.0453 66.5814 23.0453C66.9654 23.0453 67.2694 22.976 67.4934 22.8373C67.7174 22.6986 67.8828 22.512 67.9894 22.2773C68.1068 22.0426 68.1814 21.7706 68.2134 21.4613C68.2454 21.1413 68.2614 20.8106 68.2614 20.4693V18.7893ZM75.8454 38.4213C75.0988 38.4213 74.4588 38.2773 73.9254 37.9893C73.4028 37.6906 72.9761 37.2853 72.6454 36.7733C72.3148 36.2506 72.0748 35.6373 71.9254 34.9333C71.7761 34.2186 71.7014 33.4506 71.7014 32.6293C71.7014 31.8186 71.7708 31.0666 71.9094 30.3733C72.0481 29.6693 72.2774 29.0666 72.5974 28.5653C72.9281 28.064 73.3548 27.6693 73.8774 27.3813C74.4108 27.0933 75.0668 26.9493 75.8454 26.9493C76.5921 26.9493 77.2268 27.0933 77.7494 27.3813C78.2721 27.6693 78.6988 28.064 79.0294 28.5653C79.3601 29.0666 79.6001 29.6693 79.7494 30.3733C79.8988 31.0666 79.9734 31.8186 79.9734 32.6293C79.9734 33.4506 79.8988 34.2186 79.7494 34.9333C79.6108 35.6373 79.3814 36.2506 79.0614 36.7733C78.7414 37.2853 78.3148 37.6906 77.7814 37.9893C77.2588 38.2773 76.6134 38.4213 75.8454 38.4213ZM77.5894 31.8613C77.5894 31.488 77.5734 31.1306 77.5414 30.7893C77.5094 30.448 77.4348 30.1493 77.3174 29.8933C77.2001 29.6373 77.0241 29.4346 76.7894 29.2853C76.5548 29.1253 76.2348 29.0453 75.8294 29.0453C75.4348 29.0453 75.1254 29.1146 74.9014 29.2533C74.6774 29.392 74.5068 29.5786 74.3894 29.8133C74.2828 30.048 74.2134 30.3253 74.1814 30.6453C74.1494 30.9546 74.1334 31.2853 74.1334 31.6373V33.2533C74.1334 33.6373 74.1494 34.0053 74.1814 34.3573C74.2134 34.6986 74.2881 35.0026 74.4054 35.2693C74.5228 35.5253 74.6988 35.7333 74.9334 35.8933C75.1788 36.0426 75.5041 36.1173 75.9094 36.1173C76.2934 36.1173 76.5974 36.048 76.8214 35.9093C77.0454 35.7706 77.2108 35.584 77.3174 35.3493C77.4348 35.1146 77.5094 34.8426 77.5414 34.5333C77.5734 34.2133 77.5894 33.8826 77.5894 33.5413V31.8613ZM84.7859 26.9493H90.7539V20.2133H93.2339V26.9493H99.1859V29.4293H93.2339V36.1973H90.7539V29.4293H84.7859V26.9493Z" fill="#FF4D00"/>
<path d="M22.1484 56.2693C21.7884 56.2693 21.4618 56.206 21.1684 56.0793C20.8818 55.9526 20.6351 55.7726 20.4284 55.5393C20.2284 55.2993 20.0751 55.016 19.9684 54.6893C19.8618 54.356 19.8084 53.9826 19.8084 53.5693C19.8084 53.1626 19.8618 52.7926 19.9684 52.4593C20.0751 52.126 20.2284 51.8426 20.4284 51.6093C20.6351 51.3693 20.8818 51.186 21.1684 51.0593C21.4618 50.9326 21.7884 50.8693 22.1484 50.8693C22.5084 50.8693 22.8318 50.9326 23.1184 51.0593C23.4118 51.186 23.6584 51.3693 23.8584 51.6093C24.0651 51.8426 24.2218 52.126 24.3284 52.4593C24.4351 52.7926 24.4884 53.1626 24.4884 53.5693C24.4884 53.9826 24.4351 54.356 24.3284 54.6893C24.2218 55.016 24.0651 55.2993 23.8584 55.5393C23.6584 55.7726 23.4118 55.9526 23.1184 56.0793C22.8318 56.206 22.5084 56.2693 22.1484 56.2693ZM22.1484 55.5793C22.5951 55.5793 22.9551 55.446 23.2284 55.1793C23.5018 54.9126 23.6384 54.4993 23.6384 53.9393V53.1993C23.6384 52.6393 23.5018 52.226 23.2284 51.9593C22.9551 51.6926 22.5951 51.5593 22.1484 51.5593C21.7018 51.5593 21.3418 51.6926 21.0684 51.9593C20.7951 52.226 20.6584 52.6393 20.6584 53.1993V53.9393C20.6584 54.4993 20.7951 54.9126 21.0684 55.1793C21.3418 55.446 21.7018 55.5793 22.1484 55.5793ZM25.9745 55.4693H27.7145V51.6693H25.8745V50.9893H27.7145V49.9293C27.7145 49.5826 27.8045 49.2993 27.9845 49.0793C28.1712 48.8593 28.4612 48.7493 28.8545 48.7493H30.5845V49.4293H28.5145V50.9893H30.5845V51.6693H28.5145V55.4693H30.3545V56.1493H25.9745V55.4693ZM42.7467 56.7393C42.7467 57.2593 42.5301 57.6426 42.0967 57.8893C41.6634 58.1426 41.0134 58.2693 40.1467 58.2693C39.3134 58.2693 38.7134 58.1593 38.3467 57.9393C37.9867 57.7193 37.8067 57.4026 37.8067 56.9893C37.8067 56.7093 37.8801 56.4926 38.0267 56.3393C38.1734 56.186 38.3801 56.0726 38.6467 55.9993V55.8793C38.5001 55.806 38.3867 55.7126 38.3067 55.5993C38.2267 55.486 38.1867 55.3426 38.1867 55.1693C38.1867 54.9026 38.2734 54.7026 38.4467 54.5693C38.6267 54.436 38.8501 54.336 39.1167 54.2693V54.2293C38.7967 54.0893 38.5467 53.8826 38.3667 53.6093C38.1934 53.336 38.1067 53.016 38.1067 52.6493C38.1067 52.3893 38.1534 52.1493 38.2467 51.9293C38.3401 51.7093 38.4734 51.5226 38.6467 51.3693C38.8267 51.2093 39.0401 51.086 39.2867 50.9993C39.5334 50.9126 39.8067 50.8693 40.1067 50.8693C40.4934 50.8693 40.8334 50.9393 41.1267 51.0793V50.9893C41.1267 50.7893 41.1734 50.6226 41.2667 50.4893C41.3601 50.356 41.5201 50.2893 41.7467 50.2893H42.6967V50.9893H41.5367V51.3393C41.7234 51.4993 41.8667 51.6893 41.9667 51.9093C42.0667 52.1293 42.1167 52.376 42.1167 52.6493C42.1167 52.9093 42.0667 53.1493 41.9667 53.3693C41.8734 53.5893 41.7401 53.7793 41.5667 53.9393C41.3934 54.0926 41.1801 54.2126 40.9267 54.2993C40.6801 54.386 40.4067 54.4293 40.1067 54.4293C40.0201 54.4293 39.9367 54.426 39.8567 54.4193C39.7767 54.4126 39.6967 54.4026 39.6167 54.3893C39.5367 54.4026 39.4534 54.426 39.3667 54.4593C39.2801 54.486 39.2001 54.526 39.1267 54.5793C39.0534 54.626 38.9934 54.6826 38.9467 54.7493C38.9001 54.816 38.8767 54.8926 38.8767 54.9793C38.8767 55.1326 38.9534 55.236 39.1067 55.2893C39.2601 55.336 39.4601 55.3593 39.7067 55.3593H40.8467C41.5134 55.3593 41.9967 55.486 42.2967 55.7393C42.5967 55.986 42.7467 56.3193 42.7467 56.7393ZM41.9967 56.7793C41.9967 56.5726 41.9134 56.406 41.7467 56.2793C41.5801 56.1593 41.2901 56.0993 40.8767 56.0993H39.0867C38.7401 56.2393 38.5667 56.4726 38.5667 56.7993C38.5667 57.026 38.6567 57.2193 38.8367 57.3793C39.0167 57.546 39.3167 57.6293 39.7367 57.6293H40.5167C40.9834 57.6293 41.3467 57.556 41.6067 57.4093C41.8667 57.2693 41.9967 57.0593 41.9967 56.7793ZM40.1067 53.8093C40.5067 53.8093 40.8001 53.716 40.9867 53.5293C41.1801 53.3426 41.2767 53.096 41.2767 52.7893V52.4993C41.2767 52.1926 41.1801 51.9493 40.9867 51.7693C40.8001 51.5826 40.5067 51.4893 40.1067 51.4893C39.7067 51.4893 39.4134 51.5826 39.2267 51.7693C39.0401 51.9493 38.9467 52.1926 38.9467 52.4993V52.7893C38.9467 53.096 39.0401 53.3426 39.2267 53.5293C39.4134 53.716 39.7067 53.8093 40.1067 53.8093ZM43.9328 55.4693H45.7328V49.4293H43.9328V48.7493H46.5328V55.4693H48.3328V56.1493H43.9328V55.4693ZM52.1289 56.2693C51.7689 56.2693 51.4422 56.206 51.1489 56.0793C50.8622 55.9526 50.6156 55.7726 50.4089 55.5393C50.2089 55.2993 50.0556 55.016 49.9489 54.6893C49.8422 54.356 49.7889 53.9826 49.7889 53.5693C49.7889 53.1626 49.8422 52.7926 49.9489 52.4593C50.0556 52.126 50.2089 51.8426 50.4089 51.6093C50.6156 51.3693 50.8622 51.186 51.1489 51.0593C51.4422 50.9326 51.7689 50.8693 52.1289 50.8693C52.4889 50.8693 52.8122 50.9326 53.0989 51.0593C53.3922 51.186 53.6389 51.3693 53.8389 51.6093C54.0456 51.8426 54.2022 52.126 54.3089 52.4593C54.4156 52.7926 54.4689 53.1626 54.4689 53.5693C54.4689 53.9826 54.4156 54.356 54.3089 54.6893C54.2022 55.016 54.0456 55.2993 53.8389 55.5393C53.6389 55.7726 53.3922 55.9526 53.0989 56.0793C52.8122 56.206 52.4889 56.2693 52.1289 56.2693ZM52.1289 55.5793C52.5756 55.5793 52.9356 55.446 53.2089 55.1793C53.4822 54.9126 53.6189 54.4993 53.6189 53.9393V53.1993C53.6189 52.6393 53.4822 52.226 53.2089 51.9593C52.9356 51.6926 52.5756 51.5593 52.1289 51.5593C51.6822 51.5593 51.3222 51.6926 51.0489 51.9593C50.7756 52.226 50.6389 52.6393 50.6389 53.1993V53.9393C50.6389 54.4993 50.7756 54.9126 51.0489 55.1793C51.3222 55.446 51.6822 55.5793 52.1289 55.5793ZM56.075 48.7493H56.875V51.8293H56.915C57.2483 51.1893 57.7783 50.8693 58.505 50.8693C59.1383 50.8693 59.6317 51.106 59.985 51.5793C60.345 52.0526 60.525 52.716 60.525 53.5693C60.525 54.4226 60.345 55.086 59.985 55.5593C59.6317 56.0326 59.1383 56.2693 58.505 56.2693C57.7783 56.2693 57.2483 55.9493 56.915 55.3093H56.875V56.1493H56.075V48.7493ZM58.195 55.5593C58.6617 55.5593 59.0217 55.4193 59.275 55.1393C59.535 54.8526 59.665 54.476 59.665 54.0093V53.1293C59.665 52.6626 59.535 52.2893 59.275 52.0093C59.0217 51.7226 58.6617 51.5793 58.195 51.5793C58.015 51.5793 57.845 51.6026 57.685 51.6493C57.525 51.696 57.385 51.766 57.265 51.8593C57.145 51.946 57.0483 52.056 56.975 52.1893C56.9083 52.316 56.875 52.466 56.875 52.6393V54.4993C56.875 54.6726 56.9083 54.826 56.975 54.9593C57.0483 55.086 57.145 55.196 57.265 55.2893C57.385 55.376 57.525 55.4426 57.685 55.4893C57.845 55.536 58.015 55.5593 58.195 55.5593ZM66.0711 56.1493C65.7578 56.1493 65.5344 56.0693 65.4011 55.9093C65.2678 55.7493 65.1844 55.5493 65.1511 55.3093H65.1011C64.9878 55.6093 64.8044 55.846 64.5511 56.0193C64.3044 56.186 63.9711 56.2693 63.5511 56.2693C63.0111 56.2693 62.5811 56.1293 62.2611 55.8493C61.9411 55.5693 61.7811 55.186 61.7811 54.6993C61.7811 54.2193 61.9544 53.8493 62.3011 53.5893C62.6544 53.3293 63.2211 53.1993 64.0011 53.1993H65.1011V52.6893C65.1011 52.3093 64.9944 52.026 64.7811 51.8393C64.5678 51.646 64.2644 51.5493 63.8711 51.5493C63.5244 51.5493 63.2411 51.6193 63.0211 51.7593C62.8011 51.8926 62.6244 52.076 62.4911 52.3093L61.9511 51.9093C62.0178 51.776 62.1078 51.646 62.2211 51.5193C62.3344 51.3926 62.4744 51.2826 62.6411 51.1893C62.8078 51.0893 62.9978 51.0126 63.2111 50.9593C63.4244 50.8993 63.6611 50.8693 63.9211 50.8693C64.5278 50.8693 65.0078 51.0226 65.3611 51.3293C65.7211 51.636 65.9011 52.0626 65.9011 52.6093V55.4493H66.6211V56.1493H66.0711ZM63.6911 55.5993C63.8978 55.5993 64.0844 55.576 64.2511 55.5293C64.4244 55.476 64.5744 55.4093 64.7011 55.3293C64.8278 55.2426 64.9244 55.1426 64.9911 55.0293C65.0644 54.9093 65.1011 54.7826 65.1011 54.6493V53.7993H64.0011C63.5211 53.7993 63.1711 53.866 62.9511 53.9993C62.7311 54.1326 62.6211 54.326 62.6211 54.5793V54.7893C62.6211 55.056 62.7144 55.2593 62.9011 55.3993C63.0944 55.5326 63.3578 55.5993 63.6911 55.5993ZM67.9172 55.4693H69.7172V49.4293H67.9172V48.7493H70.5172V55.4693H72.3172V56.1493H67.9172V55.4693ZM82.4294 49.8493C82.196 49.8493 82.0327 49.8026 81.9394 49.7093C81.846 49.6093 81.7994 49.486 81.7994 49.3393V49.1793C81.7994 49.0326 81.846 48.9126 81.9394 48.8193C82.0327 48.7193 82.196 48.6693 82.4294 48.6693C82.6627 48.6693 82.826 48.7193 82.9194 48.8193C83.0127 48.9126 83.0594 49.0326 83.0594 49.1793V49.3393C83.0594 49.486 83.0127 49.6093 82.9194 49.7093C82.826 49.8026 82.6627 49.8493 82.4294 49.8493ZM80.1694 55.4693H82.0294V51.6693H80.1694V50.9893H82.8294V55.4693H84.5694V56.1493H80.1694V55.4693ZM86.0855 56.1493V50.9893H86.8855V51.8293H86.9255C86.9788 51.7026 87.0455 51.5826 87.1255 51.4693C87.2055 51.3493 87.3021 51.246 87.4155 51.1593C87.5355 51.0726 87.6755 51.0026 87.8355 50.9493C87.9955 50.896 88.1821 50.8693 88.3955 50.8693C88.9355 50.8693 89.3688 51.0426 89.6955 51.3893C90.0221 51.7293 90.1855 52.2126 90.1855 52.8393V56.1493H89.3855V52.9793C89.3855 52.506 89.2821 52.156 89.0755 51.9293C88.8688 51.696 88.5655 51.5793 88.1655 51.5793C88.0055 51.5793 87.8488 51.5993 87.6955 51.6393C87.5421 51.6793 87.4055 51.7393 87.2855 51.8193C87.1655 51.8993 87.0688 52.0026 86.9955 52.1293C86.9221 52.256 86.8855 52.4026 86.8855 52.5693V56.1493H86.0855ZM94.3516 56.1493C93.9582 56.1493 93.6682 56.0393 93.4816 55.8193C93.3016 55.5993 93.2116 55.316 93.2116 54.9693V51.6693H91.4916V50.9893H92.7716C92.9449 50.9893 93.0649 50.956 93.1316 50.8893C93.2049 50.816 93.2416 50.6926 93.2416 50.5193V49.1693H94.0116V50.9893H96.3616V51.6693H94.0116V55.4693H96.3616V56.1493H94.3516ZM100.188 56.2693C99.8143 56.2693 99.4777 56.206 99.1777 56.0793C98.8843 55.9526 98.631 55.7726 98.4177 55.5393C98.211 55.2993 98.051 55.016 97.9377 54.6893C97.8243 54.356 97.7677 53.986 97.7677 53.5793C97.7677 53.166 97.8243 52.7926 97.9377 52.4593C98.0577 52.126 98.221 51.8426 98.4277 51.6093C98.6343 51.3693 98.881 51.186 99.1677 51.0593C99.461 50.9326 99.7843 50.8693 100.138 50.8693C100.484 50.8693 100.798 50.9326 101.078 51.0593C101.364 51.186 101.608 51.3626 101.808 51.5893C102.008 51.8093 102.161 52.0726 102.268 52.3793C102.374 52.686 102.428 53.0226 102.428 53.3893V53.7693H98.6077V54.0093C98.6077 54.236 98.6443 54.446 98.7177 54.6393C98.791 54.8326 98.8943 54.9993 99.0277 55.1393C99.1677 55.2793 99.3343 55.3893 99.5277 55.4693C99.7277 55.5426 99.9477 55.5793 100.188 55.5793C100.534 55.5793 100.834 55.4993 101.088 55.3393C101.341 55.1793 101.534 54.9593 101.668 54.6793L102.258 55.0793C102.104 55.426 101.848 55.7126 101.488 55.9393C101.134 56.1593 100.701 56.2693 100.188 56.2693ZM100.138 51.5293C99.9177 51.5293 99.7143 51.5693 99.5277 51.6493C99.341 51.7293 99.1777 51.8393 99.0377 51.9793C98.9043 52.1193 98.7977 52.286 98.7177 52.4793C98.6443 52.666 98.6077 52.8726 98.6077 53.0993V53.1693H101.568V53.0593C101.568 52.8326 101.531 52.626 101.458 52.4393C101.391 52.2526 101.294 52.0926 101.168 51.9593C101.048 51.8193 100.898 51.7126 100.718 51.6393C100.544 51.566 100.351 51.5293 100.138 51.5293ZM103.864 55.4693H105.374V51.6693H103.864V50.9893H106.174V52.2893H106.224C106.33 51.8826 106.53 51.566 106.824 51.3393C107.124 51.106 107.504 50.9893 107.964 50.9893H108.684V51.7893H107.714C107.254 51.7893 106.88 51.9226 106.594 52.1893C106.314 52.456 106.174 52.806 106.174 53.2393V55.4693H108.174V56.1493H103.864V55.4693ZM110.07 56.1493V50.9893H110.87V51.8293H110.91C110.963 51.7026 111.03 51.5826 111.11 51.4693C111.19 51.3493 111.287 51.246 111.4 51.1593C111.52 51.0726 111.66 51.0026 111.82 50.9493C111.98 50.896 112.167 50.8693 112.38 50.8693C112.92 50.8693 113.353 51.0426 113.68 51.3893C114.007 51.7293 114.17 52.2126 114.17 52.8393V56.1493H113.37V52.9793C113.37 52.506 113.267 52.156 113.06 51.9293C112.853 51.696 112.55 51.5793 112.15 51.5793C111.99 51.5793 111.833 51.5993 111.68 51.6393C111.527 51.6793 111.39 51.7393 111.27 51.8193C111.15 51.8993 111.053 52.0026 110.98 52.1293C110.907 52.256 110.87 52.4026 110.87 52.5693V56.1493H110.07ZM118.176 56.2693C117.803 56.2693 117.466 56.206 117.166 56.0793C116.873 55.9526 116.619 55.7726 116.406 55.5393C116.199 55.2993 116.039 55.016 115.926 54.6893C115.813 54.356 115.756 53.986 115.756 53.5793C115.756 53.166 115.813 52.7926 115.926 52.4593C116.046 52.126 116.209 51.8426 116.416 51.6093C116.623 51.3693 116.869 51.186 117.156 51.0593C117.449 50.9326 117.773 50.8693 118.126 50.8693C118.473 50.8693 118.786 50.9326 119.066 51.0593C119.353 51.186 119.596 51.3626 119.796 51.5893C119.996 51.8093 120.149 52.0726 120.256 52.3793C120.363 52.686 120.416 53.0226 120.416 53.3893V53.7693H116.596V54.0093C116.596 54.236 116.633 54.446 116.706 54.6393C116.779 54.8326 116.883 54.9993 117.016 55.1393C117.156 55.2793 117.323 55.3893 117.516 55.4693C117.716 55.5426 117.936 55.5793 118.176 55.5793C118.523 55.5793 118.823 55.4993 119.076 55.3393C119.329 55.1793 119.523 54.9593 119.656 54.6793L120.246 55.0793C120.093 55.426 119.836 55.7126 119.476 55.9393C119.123 56.1593 118.689 56.2693 118.176 56.2693ZM118.126 51.5293C117.906 51.5293 117.703 51.5693 117.516 51.6493C117.329 51.7293 117.166 51.8393 117.026 51.9793C116.893 52.1193 116.786 52.286 116.706 52.4793C116.633 52.666 116.596 52.8726 116.596 53.0993V53.1693H119.556V53.0593C119.556 52.8326 119.519 52.626 119.446 52.4393C119.379 52.2526 119.283 52.0926 119.156 51.9593C119.036 51.8193 118.886 51.7126 118.706 51.6393C118.533 51.566 118.339 51.5293 118.126 51.5293ZM124.332 56.1493C123.939 56.1493 123.649 56.0393 123.462 55.8193C123.282 55.5993 123.192 55.316 123.192 54.9693V51.6693H121.472V50.9893H122.752C122.925 50.9893 123.045 50.956 123.112 50.8893C123.185 50.816 123.222 50.6926 123.222 50.5193V49.1693H123.992V50.9893H126.342V51.6693H123.992V55.4693H126.342V56.1493H124.332ZM136.324 56.1493C135.931 56.1493 135.641 56.0393 135.454 55.8193C135.274 55.5993 135.184 55.316 135.184 54.9693V51.6693H133.464V50.9893H134.744C134.918 50.9893 135.038 50.956 135.104 50.8893C135.178 50.816 135.214 50.6926 135.214 50.5193V49.1693H135.984V50.9893H138.334V51.6693H135.984V55.4693H138.334V56.1493H136.324ZM139.84 55.4693H141.35V51.6693H139.84V50.9893H142.15V52.2893H142.2C142.307 51.8826 142.507 51.566 142.8 51.3393C143.1 51.106 143.48 50.9893 143.94 50.9893H144.66V51.7893H143.69C143.23 51.7893 142.857 51.9226 142.57 52.1893C142.29 52.456 142.15 52.806 142.15 53.2393V55.4693H144.15V56.1493H139.84V55.4693ZM150.016 56.1493C149.703 56.1493 149.48 56.0693 149.346 55.9093C149.213 55.7493 149.13 55.5493 149.096 55.3093H149.046C148.933 55.6093 148.75 55.846 148.496 56.0193C148.25 56.186 147.916 56.2693 147.496 56.2693C146.956 56.2693 146.526 56.1293 146.206 55.8493C145.886 55.5693 145.726 55.186 145.726 54.6993C145.726 54.2193 145.9 53.8493 146.246 53.5893C146.6 53.3293 147.166 53.1993 147.946 53.1993H149.046V52.6893C149.046 52.3093 148.94 52.026 148.726 51.8393C148.513 51.646 148.21 51.5493 147.816 51.5493C147.47 51.5493 147.186 51.6193 146.966 51.7593C146.746 51.8926 146.57 52.076 146.436 52.3093L145.896 51.9093C145.963 51.776 146.053 51.646 146.166 51.5193C146.28 51.3926 146.42 51.2826 146.586 51.1893C146.753 51.0893 146.943 51.0126 147.156 50.9593C147.37 50.8993 147.606 50.8693 147.866 50.8693C148.473 50.8693 148.953 51.0226 149.306 51.3293C149.666 51.636 149.846 52.0626 149.846 52.6093V55.4493H150.566V56.1493H150.016ZM147.636 55.5993C147.843 55.5993 148.03 55.576 148.196 55.5293C148.37 55.476 148.52 55.4093 148.646 55.3293C148.773 55.2426 148.87 55.1426 148.936 55.0293C149.01 54.9093 149.046 54.7826 149.046 54.6493V53.7993H147.946C147.466 53.7993 147.116 53.866 146.896 53.9993C146.676 54.1326 146.566 54.326 146.566 54.5793V54.7893C146.566 55.056 146.66 55.2593 146.846 55.3993C147.04 55.5326 147.303 55.5993 147.636 55.5993ZM151.893 55.4693H153.632V51.6693H151.793V50.9893H153.632V49.9293C153.632 49.5826 153.723 49.2993 153.903 49.0793C154.089 48.8593 154.379 48.7493 154.773 48.7493H156.503V49.4293H154.433V50.9893H156.503V51.6693H154.433V55.4693H156.273V56.1493H151.893V55.4693ZM157.889 55.4693H159.629V51.6693H157.789V50.9893H159.629V49.9293C159.629 49.5826 159.719 49.2993 159.899 49.0793C160.085 48.8593 160.375 48.7493 160.769 48.7493H162.499V49.4293H160.429V50.9893H162.499V51.6693H160.429V55.4693H162.269V56.1493H157.889V55.4693ZM166.375 49.8493C166.141 49.8493 165.978 49.8026 165.885 49.7093C165.791 49.6093 165.745 49.486 165.745 49.3393V49.1793C165.745 49.0326 165.791 48.9126 165.885 48.8193C165.978 48.7193 166.141 48.6693 166.375 48.6693C166.608 48.6693 166.771 48.7193 166.865 48.8193C166.958 48.9126 167.005 49.0326 167.005 49.1793V49.3393C167.005 49.486 166.958 49.6093 166.865 49.7093C166.771 49.8026 166.608 49.8493 166.375 49.8493ZM164.115 55.4693H165.975V51.6693H164.115V50.9893H166.775V55.4693H168.515V56.1493H164.115V55.4693ZM172.231 56.2693C171.857 56.2693 171.524 56.206 171.231 56.0793C170.944 55.946 170.701 55.7626 170.501 55.5293C170.301 55.296 170.147 55.0126 170.041 54.6793C169.941 54.346 169.891 53.976 169.891 53.5693C169.891 53.1626 169.944 52.7926 170.051 52.4593C170.157 52.126 170.311 51.8426 170.511 51.6093C170.711 51.3693 170.954 51.186 171.241 51.0593C171.527 50.9326 171.854 50.8693 172.221 50.8693C172.721 50.8693 173.127 50.9793 173.441 51.1993C173.754 51.4193 173.984 51.706 174.131 52.0593L173.491 52.3993C173.397 52.1326 173.241 51.926 173.021 51.7793C172.807 51.6326 172.541 51.5593 172.221 51.5593C171.987 51.5593 171.777 51.5993 171.591 51.6793C171.411 51.7526 171.257 51.8593 171.131 51.9993C171.004 52.1393 170.907 52.306 170.841 52.4993C170.781 52.6926 170.751 52.9026 170.751 53.1293V54.0093C170.751 54.236 170.781 54.446 170.841 54.6393C170.907 54.8326 171.004 54.9993 171.131 55.1393C171.257 55.2793 171.414 55.3893 171.601 55.4693C171.787 55.5426 172.001 55.5793 172.241 55.5793C172.587 55.5793 172.874 55.4993 173.101 55.3393C173.327 55.1793 173.507 54.9593 173.641 54.6793L174.211 55.0693C174.057 55.416 173.817 55.7026 173.491 55.9293C173.171 56.156 172.751 56.2693 172.231 56.2693Z" fill="white"/>
</svg>
